<svg width="1024" height="1024" viewBox="0 0 1024 1024" fill="none" xmlns="http://www.w3.org/2000/svg">
<rect width="1024" height="1024" rx="100" fill="#0C0C0C"/>
<path d="M268.68 480H141C147.68 400.777 178.828 328.529 226.753 271L317 362.296C291.522 395.807 274.358 436.101 268.68 480Z" fill="#CDCED1"/>
<path d="M660.578 317C627.387 291.508 587.479 274.344 544 268.672V141C622.465 147.663 694.021 178.827 751 226.754L660.578 317Z" fill="#1F2530"/>
<path d="M226.753 751C178.828 693.476 147.68 621.215 141 542H268.68C274.358 585.916 291.522 626.206 317 659.713L226.753 751Z" fill="#B4B6BA"/>
<path d="M363.42 317C396.607 291.508 436.516 274.344 480 268.672V141C401.538 147.663 329.973 178.827 273 226.754L363.42 317Z" fill="white"/>
<path d="M797.246 751L707 659.713C732.471 626.206 749.635 585.916 755.328 542H883C876.316 621.215 845.173 693.476 797.246 751Z" fill="#51555E"/>
<path d="M883 480H755.328C749.635 436.101 732.471 395.807 707 362.296L797.246 271C845.173 328.529 876.316 400.777 883 480Z" fill="#383D47"/>
<path d="M480 883C401.538 876.24 329.971 844.743 273 796.271L363.417 705C396.607 730.761 436.516 748.119 480 753.856V883Z" fill="#83868C"/>
<path d="M544 883V753.856C587.479 748.119 627.387 730.761 660.578 705L751 796.271C694.021 844.743 622.465 876.24 544 883Z" fill="#6A6D75"/>
</svg>
